<svg xmlns="http://www.w3.org/2000/svg" width="345" height="69" fill="none"><path fill="#292F36" d="M23.623 11.325c3.704 0 8.202.126 12.041.126 4.228 0 9.202-.087 11.994-.126 0 1.305-.047 2.61-.047 3.914 0 1.305.047 2.784.047 4.128h-1.221c-.262-3.305-.793-6.998-8.028-6.998h-4.3v13.61h1.436c4.887 0 6.592-1.582 6.592-5.046h1.127a115.44 115.44 0 0 0-.127 5.536c0 1.882 0 3.828.127 5.694H42.12c0-3.606-1.705-5.132-6.591-5.132h-1.42v13.776h4.49v1.044c-2.531-.04-5.062-.127-7.719-.127-2.38 0-4.974.087-7.242.127v-1.044h3.403v-28.47h-3.42v-1.012ZM49.538 40.894h2.444V12.282H49.49v-.957c1.586 0 3.173.126 4.672.126 1.5 0 3.173-.087 4.712-.126v29.569h2.443v.957c-1.967 0-3.966-.127-5.933-.127-1.968 0-3.967.087-5.847.127v-.957ZM86.004 41.85a55.578 55.578 0 0 0-3.84-.126c-1.697 0-3.315.04-4.973.127.087-1.432.087-2.958.087-4.476h-.087c-.563 1.866-1.658 4.958-6.71 4.958-4.015 0-6.854-1.914-6.854-5.615.047-6.516 7.765-6.168 13.175-6.564v-2.436c0-2.649-.309-4.61-3.228-4.61-1.396 0-2.443.743-2.443 1.874 0 .649.134 1.305.134 2.001 0 1.582-1.047 2.301-3.054 2.301-2.007 0-3.228-.814-3.228-2.396 0-3.78 4.823-4.745 8.892-4.745 3.229 0 7.933.087 9.424 4.31a10.69 10.69 0 0 1 .397 3.393v11.071h2.308v.934Zm-12.827-1.257c1.92 0 3.054-2 3.363-3.914.205-1.838.293-3.687.262-5.536-3.8.087-5.886.957-5.886 5.093 0 2.222.35 4.357 2.261 4.357ZM86.4 23.59h-1.522v-.956c1.967.04 3.886.126 5.846.126s4.053-.087 6.108-.127v.957h-2.753l4.887 11.262 2.53-6.042a34.029 34.029 0 0 0 1.745-5.267h-2.705v-.91c1.222.04 2.317.127 3.491.127.92 0 1.919-.087 2.839-.127v.91h-1.586a46.137 46.137 0 0 0-2.792 5.615l-5.553 12.954h-2.23L86.402 23.59ZM107.882 40.894h2.443V23.59h-2.491v-.956c1.587.04 3.173.126 4.664.126 1.492 0 3.173-.087 4.712-.127v18.26h2.444v.958c-1.96 0-3.927-.127-5.934-.127s-3.966.087-5.838.127v-.957Zm1.658-26.098c0-2.562 2.007-3.693 4.355-3.693 2.348 0 4.061 1.392 4.061 3.74 0 2.524-1.587 3.694-4.188 3.694-2.412-.04-4.244-1.257-4.244-3.78l.016.04ZM142.785 36.766c-.794 1.581-2.531 5.535-9.559 5.535-6.497 0-11.209-3.218-11.209-9.87 0-6.326 3.443-10.28 10.82-10.28 8.115 0 10.313 5.441 10.313 9.878h-13.851c0 .909 0 2.04.135 3.48.262 2.822 1.262 5.733 5.236 5.733a7.436 7.436 0 0 0 4.365-1.307 7.395 7.395 0 0 0 2.774-3.604l.976.435Zm-6.894-5.694c0-1.392.088-4.31-.571-6.003a2.739 2.739 0 0 0-2.618-1.961 3.026 3.026 0 0 0-2.744 2.31 18.967 18.967 0 0 0-.659 5.654h6.592ZM145.513 40.894h2.444V23.59h-2.491v-.956c1.586.04 3.173.126 4.672.126 1.499 0 2.705-.087 4.276-.127v4.785h.087c.698-2.523 2.094-5.267 7.139-5.267a6.684 6.684 0 0 1 5.672 2.61c.912 1.13 1.087 3.092 1.087 5.306v10.827h2.578v.957c-2.007 0-3.967-.127-5.981-.127-2.015 0-3.967.087-5.886.127v-.957h2.379v-12.52c0-2.308-.214-4.744-2.443-4.744-3.403 0-4.228 4.524-4.228 8.525v8.739h2.443v.957c-1.967 0-3.926-.127-5.933-.127-2.007 0-3.966.087-5.846.127l.031-.957ZM193.846 37.525c2.705.213 9.598.696 9.598 7.782 0 7.433-8.202 7.868-13.612 7.868-1.586 0-3.879-.126-6.235-.126-2.356 0-4.672.087-6.806.126v-1.044h3.356V23.725h-3.356v-1.076c2.134.04 4.538.127 6.806.127 2.531 0 4.974-.127 6.672-.127 6.933 0 12.39 1.48 12.39 7.569s-6.195 6.998-8.813 7.117v.19Zm-4.664-.522c3.926 0 6.06-1.961 6.06-6.327 0-5.267-1.919-6.959-5.553-6.959h-2.482v13.286h1.975Zm-1.975 1.044V52.13h2.443c4.323 0 6.195-2.3 6.195-6.95 0-5.442-2.134-7.118-6.671-7.118l-1.967-.016ZM207.038 43.606c0-6.65 4.275-10.13 11.304-10.13 6.282 0 10.859 3.163 10.859 10.13 0 6.968-5.108 10.052-10.907 10.052-6.56 0-11.256-3.132-11.256-10.052Zm11.169 9.095c3.625 0 3.712-5.354 3.712-9.095 0-4.128-.484-9.173-3.712-9.173-3.578 0-3.879 4.784-3.879 9.134-.016 4.088.333 9.134 3.863 9.134h.016ZM231.763 52.195h2.444v-17.28h-2.491v-.957c1.586.04 3.173.127 4.672.127 1.499 0 2.705-.087 4.276-.127v4.793h.087c.698-2.523 2.094-5.267 7.139-5.267a6.695 6.695 0 0 1 5.664 2.61c.92 1.13 1.095 3.092 1.095 5.306v10.795h2.57v.957c-2.007 0-3.967-.127-5.974-.127-2.006 0-3.926.087-5.893.127v-.957h2.379V39.7c0-2.31-.222-4.745-2.443-4.745-3.403 0-4.228 4.523-4.228 8.525v8.715h2.467v.957c-1.967 0-3.926-.127-5.933-.127-2.007 0-3.967.087-5.847.127l.016-.957ZM259.115 34.915h-1.523v-.957c1.959.04 3.879.127 5.846.127s4.053-.087 6.108-.127v.957h-2.753l4.887 11.261 2.53-6.041c.717-1.709 1.3-3.47 1.745-5.267h-2.705v-.91c1.222.04 2.309.127 3.491.127.912 0 1.919-.087 2.831-.127v.91h-1.586a48.623 48.623 0 0 0-2.792 5.614l-5.553 12.954h-2.221l-8.305-18.52ZM280.58 52.195h2.443v-17.28h-2.483v-.957c1.587.04 3.173.127 4.664.127 1.492 0 3.173-.087 4.712-.127v18.237h2.444v.957c-1.96 0-3.927-.127-5.934-.127s-3.966.087-5.846.127v-.957Zm1.658-26.098c0-2.562 2.007-3.693 4.363-3.693 2.355 0 4.061 1.392 4.061 3.74 0 2.524-1.586 3.694-4.188 3.694-2.404-.016-4.236-1.234-4.236-3.74ZM293.978 52.195h2.443v-17.28h-2.491v-.957c1.587.04 3.173.127 4.672.127 1.5 0 2.697-.087 4.268-.127v4.793h.087c.698-2.523 2.095-5.267 7.14-5.267a6.692 6.692 0 0 1 5.671 2.61c.92 1.13 1.095 3.092 1.095 5.306v10.795h2.57v.957c-2.007 0-3.966-.127-5.973-.127-2.007 0-3.927.087-5.894.127v-.957h2.38V39.7c0-2.31-.222-4.745-2.443-4.745-3.403 0-4.236 4.523-4.236 8.525v8.715h2.443v.957c-1.959 0-3.927-.127-5.926-.127s-3.966.087-5.846.127l.04-.957ZM0 0c1.356.04 3.006.134 4.625.134C6.409.134 8.329.04 10.075 0v1.044H6.496V52.13h3.577v1.044c-1.745 0-3.665-.126-5.45-.126-1.586 0-3.268.087-4.624.126V0ZM333.958 15.279c1.348 0 3.006.126 4.624.126 1.785 0 3.705-.087 5.45-.126v1.044h-3.578V67.41h3.578v1.044c-1.745 0-3.665-.126-5.45-.126-1.586 0-3.276.087-4.624.126V15.28Z"/><path fill="#292F36" d="M23.623 11.325c3.704 0 8.202.126 12.041.126 4.228 0 9.202-.087 11.994-.126 0 1.305-.047 2.61-.047 3.914 0 1.305.047 2.784.047 4.128h-1.221c-.262-3.305-.793-6.998-8.028-6.998h-4.3v13.61h1.436c4.887 0 6.592-1.582 6.592-5.046h1.127a115.44 115.44 0 0 0-.127 5.536c0 1.882 0 3.828.127 5.694H42.12c0-3.606-1.705-5.132-6.591-5.132h-1.42v13.776h4.49v1.044c-2.531-.04-5.062-.127-7.719-.127-2.38 0-4.974.087-7.242.127v-1.044h3.403v-28.47h-3.42v-1.012ZM49.538 40.894h2.444V12.282H49.49v-.957c1.586 0 3.173.126 4.672.126 1.5 0 3.173-.087 4.712-.126v29.569h2.443v.957c-1.967 0-3.966-.127-5.933-.127-1.968 0-3.967.087-5.847.127v-.957ZM86.004 41.85a55.578 55.578 0 0 0-3.84-.126c-1.697 0-3.315.04-4.973.127.087-1.432.087-2.958.087-4.476h-.087c-.563 1.866-1.658 4.958-6.71 4.958-4.015 0-6.854-1.914-6.854-5.615.047-6.516 7.765-6.168 13.175-6.564v-2.436c0-2.649-.309-4.61-3.228-4.61-1.396 0-2.443.743-2.443 1.874 0 .649.134 1.305.134 2.001 0 1.582-1.047 2.301-3.054 2.301-2.007 0-3.228-.814-3.228-2.396 0-3.78 4.823-4.745 8.892-4.745 3.229 0 7.933.087 9.424 4.31a10.69 10.69 0 0 1 .397 3.393v11.071h2.308v.934Zm-12.827-1.257c1.92 0 3.054-2 3.363-3.914.205-1.838.293-3.687.262-5.536-3.8.087-5.886.957-5.886 5.093 0 2.222.35 4.357 2.261 4.357ZM86.4 23.59h-1.522v-.956c1.967.04 3.886.126 5.846.126s4.053-.087 6.108-.127v.957h-2.753l4.887 11.262 2.53-6.042a34.029 34.029 0 0 0 1.745-5.267h-2.705v-.91c1.222.04 2.317.127 3.491.127.92 0 1.919-.087 2.839-.127v.91h-1.586a46.137 46.137 0 0 0-2.792 5.615l-5.553 12.954h-2.23L86.402 23.59ZM107.882 40.894h2.443V23.59h-2.491v-.956c1.587.04 3.173.126 4.664.126 1.492 0 3.173-.087 4.712-.127v18.26h2.444v.958c-1.96 0-3.927-.127-5.934-.127s-3.966.087-5.838.127v-.957Zm1.658-26.098c0-2.562 2.007-3.693 4.355-3.693 2.348 0 4.061 1.392 4.061 3.74 0 2.524-1.587 3.694-4.188 3.694-2.412-.04-4.244-1.257-4.244-3.78l.016.04ZM142.785 36.766c-.794 1.581-2.531 5.535-9.559 5.535-6.497 0-11.209-3.218-11.209-9.87 0-6.326 3.443-10.28 10.82-10.28 8.115 0 10.313 5.441 10.313 9.878h-13.851c0 .909 0 2.04.135 3.48.262 2.822 1.262 5.733 5.236 5.733a7.436 7.436 0 0 0 4.365-1.307 7.395 7.395 0 0 0 2.774-3.604l.976.435Zm-6.894-5.694c0-1.392.088-4.31-.571-6.003a2.739 2.739 0 0 0-2.618-1.961 3.026 3.026 0 0 0-2.744 2.31 18.967 18.967 0 0 0-.659 5.654h6.592ZM145.513 40.894h2.444V23.59h-2.491v-.956c1.586.04 3.173.126 4.672.126 1.499 0 2.705-.087 4.276-.127v4.785h.087c.698-2.523 2.094-5.267 7.139-5.267a6.684 6.684 0 0 1 5.672 2.61c.912 1.13 1.087 3.092 1.087 5.306v10.827h2.578v.957c-2.007 0-3.967-.127-5.981-.127-2.015 0-3.967.087-5.886.127v-.957h2.379v-12.52c0-2.308-.214-4.744-2.443-4.744-3.403 0-4.228 4.524-4.228 8.525v8.739h2.443v.957c-1.967 0-3.926-.127-5.933-.127-2.007 0-3.966.087-5.846.127l.031-.957ZM193.846 37.525c2.705.213 9.598.696 9.598 7.782 0 7.433-8.202 7.868-13.612 7.868-1.586 0-3.879-.126-6.235-.126-2.356 0-4.672.087-6.806.126v-1.044h3.356V23.725h-3.356v-1.076c2.134.04 4.538.127 6.806.127 2.531 0 4.974-.127 6.672-.127 6.933 0 12.39 1.48 12.39 7.569s-6.195 6.998-8.813 7.117v.19Zm-4.664-.522c3.926 0 6.06-1.961 6.06-6.327 0-5.267-1.919-6.959-5.553-6.959h-2.482v13.286h1.975Zm-1.975 1.044V52.13h2.443c4.323 0 6.195-2.3 6.195-6.95 0-5.442-2.134-7.118-6.671-7.118l-1.967-.016ZM207.038 43.606c0-6.65 4.275-10.13 11.304-10.13 6.282 0 10.859 3.163 10.859 10.13 0 6.968-5.108 10.052-10.907 10.052-6.56 0-11.256-3.132-11.256-10.052Zm11.169 9.095c3.625 0 3.712-5.354 3.712-9.095 0-4.128-.484-9.173-3.712-9.173-3.578 0-3.879 4.784-3.879 9.134-.016 4.088.333 9.134 3.863 9.134h.016ZM231.763 52.195h2.444v-17.28h-2.491v-.957c1.586.04 3.173.127 4.672.127 1.499 0 2.705-.087 4.276-.127v4.793h.087c.698-2.523 2.094-5.267 7.139-5.267a6.695 6.695 0 0 1 5.664 2.61c.92 1.13 1.095 3.092 1.095 5.306v10.795h2.57v.957c-2.007 0-3.967-.127-5.974-.127-2.006 0-3.926.087-5.893.127v-.957h2.379V39.7c0-2.31-.222-4.745-2.443-4.745-3.403 0-4.228 4.523-4.228 8.525v8.715h2.467v.957c-1.967 0-3.926-.127-5.933-.127-2.007 0-3.967.087-5.847.127l.016-.957ZM259.115 34.915h-1.523v-.957c1.959.04 3.879.127 5.846.127s4.053-.087 6.108-.127v.957h-2.753l4.887 11.261 2.53-6.041c.717-1.709 1.3-3.47 1.745-5.267h-2.705v-.91c1.222.04 2.309.127 3.491.127.912 0 1.919-.087 2.831-.127v.91h-1.586a48.623 48.623 0 0 0-2.792 5.614l-5.553 12.954h-2.221l-8.305-18.52ZM280.58 52.195h2.443v-17.28h-2.483v-.957c1.587.04 3.173.127 4.664.127 1.492 0 3.173-.087 4.712-.127v18.237h2.444v.957c-1.96 0-3.927-.127-5.934-.127s-3.966.087-5.846.127v-.957Zm1.658-26.098c0-2.562 2.007-3.693 4.363-3.693 2.355 0 4.061 1.392 4.061 3.74 0 2.524-1.586 3.694-4.188 3.694-2.404-.016-4.236-1.234-4.236-3.74ZM293.978 52.195h2.443v-17.28h-2.491v-.957c1.587.04 3.173.127 4.672.127 1.5 0 2.697-.087 4.268-.127v4.793h.087c.698-2.523 2.095-5.267 7.14-5.267a6.692 6.692 0 0 1 5.671 2.61c.92 1.13 1.095 3.092 1.095 5.306v10.795h2.57v.957c-2.007 0-3.966-.127-5.973-.127-2.007 0-3.927.087-5.894.127v-.957h2.38V39.7c0-2.31-.222-4.745-2.443-4.745-3.403 0-4.236 4.523-4.236 8.525v8.715h2.443v.957c-1.959 0-3.927-.127-5.926-.127s-3.966.087-5.846.127l.04-.957Z"/><path fill="#4ECDC4" d="M0 0c1.356.04 3.006.134 4.625.134C6.409.134 8.329.04 10.075 0v1.044H6.496V52.13h3.577v1.044c-1.745 0-3.665-.126-5.45-.126-1.586 0-3.268.087-4.624.126V0ZM333.958 15.279c1.348 0 3.006.126 4.624.126 1.785 0 3.705-.087 5.45-.126v1.044h-3.578V67.41h3.578v1.044c-1.745 0-3.665-.126-5.45-.126-1.586 0-3.276.087-4.624.126V15.28Z"/></svg>